<?xml version="1.0" encoding="utf-8"?>
<!-- Generated by IcoMoon.io -->
<svg version="1.1" xmlns="http://www.w3.org/2000/svg" xmlns:xlink="http://www.w3.org/1999/xlink" width="752" height="80" viewBox="0 0 752 80">
<symbol id="icon-circle-compass"  viewBox="0 0 23 32">
<path d="M11.514 6c0.276 0 0.5-0.224 0.5-0.5v-1.5h0.486c0.276 0 0.5-0.224 0.5-0.5v-3c0-0.276-0.224-0.5-0.5-0.5h-2c-0.276 0-0.5 0.224-0.5 0.5v3c0 0.276 0.224 0.5 0.5 0.5h0.514v1.5c0 0.276 0.223 0.5 0.5 0.5zM11 1h1v2h-1v-2zM0.268 31.817c0.074 0.039 0.153 0.058 0.232 0.058 0.18 0 0.354-0.098 0.442-0.268l4.292-8.173c1.925 0.967 4.059 1.49 6.279 1.49 2.214 0 4.344-0.521 6.265-1.483l4.278 8.166c0.090 0.17 0.264 0.268 0.443 0.268 0.078 0 0.158-0.019 0.232-0.057 0.244-0.129 0.339-0.431 0.211-0.676l-4.288-8.185c0.991-0.59 1.922-1.292 2.758-2.128 0.975-0.975 0.975-2.561 0-3.535-0.945-0.945-2.594-0.943-3.535 0-0.473 0.473-0.994 0.88-1.545 1.23l-2.358-4.501c0.913-0.729 1.511-1.837 1.511-3.093 0-2.19-1.782-3.973-3.973-3.973s-3.97 1.783-3.97 3.974c0 1.255 0.596 2.362 1.507 3.091l-2.363 4.498c-0.548-0.35-1.066-0.755-1.536-1.225-0.945-0.945-2.594-0.943-3.535 0-0.975 0.975-0.975 2.561 0 3.535 0.832 0.832 1.759 1.532 2.745 2.12l-4.302 8.192c-0.129 0.245-0.035 0.547 0.21 0.675zM3.382 17.562c0.401 0 0.778 0.156 1.062 0.439 1.886 1.886 4.396 2.924 7.070 2.924s5.186-1.038 7.072-2.924c0.566-0.567 1.555-0.565 2.121 0 0.585 0.585 0.585 1.536 0 2.121-2.452 2.451-5.718 3.802-9.193 3.802-3.477 0-6.74-1.351-9.191-3.802-0.585-0.585-0.585-1.536 0-2.121 0.282-0.282 0.658-0.439 1.059-0.439zM8.542 10.931c0-1.639 1.333-2.973 2.972-2.973s2.973 1.334 2.973 2.973-1.334 2.973-2.973 2.973-2.972-1.335-2.972-2.973zM9.899 14.553c0.494 0.221 1.039 0.351 1.615 0.351 0.574 0 1.117-0.128 1.61-0.348l2.335 4.457c-1.214 0.592-2.553 0.914-3.945 0.914-1.396 0-2.738-0.323-3.954-0.918l2.339-4.456z"></path>
</symbol>
<symbol id="icon-user" viewBox="0 0 23 32">
<path d="M22.857 24.982c0 2.607-1.714 4.732-3.804 4.732h-15.25c-2.089 0-3.804-2.125-3.804-4.732 0-4.696 1.161-10.125 5.839-10.125 1.446 1.411 3.411 2.286 5.589 2.286s4.143-0.875 5.589-2.286c4.679 0 5.839 5.429 5.839 10.125zM18.286 9.143c0 3.786-3.071 6.857-6.857 6.857s-6.857-3.071-6.857-6.857 3.071-6.857 6.857-6.857 6.857 3.071 6.857 6.857z"></path>
</symbol>
<symbol id="icon-close" viewBox="0 0 25 32">
<path d="M23.179 23.607c0 0.446-0.179 0.893-0.5 1.214l-2.429 2.429c-0.321 0.321-0.768 0.5-1.214 0.5s-0.893-0.179-1.214-0.5l-5.25-5.25-5.25 5.25c-0.321 0.321-0.768 0.5-1.214 0.5s-0.893-0.179-1.214-0.5l-2.429-2.429c-0.321-0.321-0.5-0.768-0.5-1.214s0.179-0.893 0.5-1.214l5.25-5.25-5.25-5.25c-0.321-0.321-0.5-0.768-0.5-1.214s0.179-0.893 0.5-1.214l2.429-2.429c0.321-0.321 0.768-0.5 1.214-0.5s0.893 0.179 1.214 0.5l5.25 5.25 5.25-5.25c0.321-0.321 0.768-0.5 1.214-0.5s0.893 0.179 1.214 0.5l2.429 2.429c0.321 0.321 0.5 0.768 0.5 1.214s-0.179 0.893-0.5 1.214l-5.25 5.25 5.25 5.25c0.321 0.321 0.5 0.768 0.5 1.214z"></path>
</symbol>
<symbol id="icon-lock" viewBox="0 0 21 32">
<path d="M5.714 13.714h9.143v-3.429c0-2.518-2.054-4.571-4.571-4.571s-4.571 2.054-4.571 4.571v3.429zM20.571 15.429v10.286c0 0.946-0.768 1.714-1.714 1.714h-17.143c-0.946 0-1.714-0.768-1.714-1.714v-10.286c0-0.946 0.768-1.714 1.714-1.714h0.571v-3.429c0-4.393 3.607-8 8-8s8 3.607 8 8v3.429h0.571c0.946 0 1.714 0.768 1.714 1.714z"></path>
</symbol>
<symbol id="icon-twitter" viewBox="0 0 30 32">
<path d="M28.929 7.286c-0.786 1.143-1.768 2.161-2.893 2.982 0.018 0.25 0.018 0.5 0.018 0.75 0 7.625-5.804 16.411-16.411 16.411-3.268 0-6.304-0.946-8.857-2.589 0.464 0.054 0.911 0.071 1.393 0.071 2.696 0 5.179-0.911 7.161-2.464-2.536-0.054-4.661-1.714-5.393-4 0.357 0.054 0.714 0.089 1.089 0.089 0.518 0 1.036-0.071 1.518-0.196-2.643-0.536-4.625-2.857-4.625-5.661v-0.071c0.768 0.429 1.661 0.696 2.607 0.732-1.554-1.036-2.571-2.804-2.571-4.804 0-1.071 0.286-2.054 0.786-2.911 2.839 3.5 7.107 5.786 11.893 6.036-0.089-0.429-0.143-0.875-0.143-1.321 0-3.179 2.571-5.768 5.768-5.768 1.661 0 3.161 0.696 4.214 1.821 1.304-0.25 2.554-0.732 3.661-1.393-0.429 1.339-1.339 2.464-2.536 3.179 1.161-0.125 2.286-0.446 3.321-0.893z"></path>
</symbol>
<symbol id="icon-facebook" viewBox="0 0 19 32">
<path d="M17.125 0.214v4.714h-2.804c-2.196 0-2.607 1.054-2.607 2.571v3.375h5.232l-0.696 5.286h-4.536v13.554h-5.464v-13.554h-4.554v-5.286h4.554v-3.893c0-4.518 2.768-6.982 6.804-6.982 1.929 0 3.589 0.143 4.071 0.214z"></path>
</symbol>
<symbol id="icon-google-plus" viewBox="0 0 41 32">
<path d="M25.661 16.304c0 7.482-5.018 12.786-12.571 12.786-7.232 0-13.089-5.857-13.089-13.089s5.857-13.089 13.089-13.089c3.536 0 6.482 1.286 8.768 3.429l-3.554 3.411c-0.964-0.929-2.661-2.018-5.214-2.018-4.464 0-8.107 3.696-8.107 8.268s3.643 8.268 8.107 8.268c5.179 0 7.125-3.732 7.429-5.643h-7.429v-4.5h12.357c0.125 0.661 0.214 1.321 0.214 2.179zM41.143 14.125v3.75h-3.732v3.732h-3.75v-3.732h-3.732v-3.75h3.732v-3.732h3.75v3.732h3.732z"></path>
</symbol>
<symbol id="icon-envelope" viewBox="0 0 32 32">
<path d="M32 12.679v14.179c0 1.571-1.286 2.857-2.857 2.857h-26.286c-1.571 0-2.857-1.286-2.857-2.857v-14.179c0.536 0.589 1.143 1.107 1.804 1.554 2.964 2.018 5.964 4.036 8.875 6.161 1.5 1.107 3.357 2.464 5.304 2.464h0.036c1.946 0 3.804-1.357 5.304-2.464 2.911-2.107 5.911-4.143 8.893-6.161 0.643-0.446 1.25-0.964 1.786-1.554zM32 7.429c0 2-1.482 3.804-3.054 4.893-2.786 1.929-5.589 3.857-8.357 5.804-1.161 0.804-3.125 2.446-4.571 2.446h-0.036c-1.446 0-3.411-1.643-4.571-2.446-2.768-1.946-5.571-3.875-8.339-5.804-1.268-0.857-3.071-2.875-3.071-4.5 0-1.75 0.946-3.25 2.857-3.25h26.286c1.554 0 2.857 1.286 2.857 2.857z"></path>
</symbol>
<symbol id="icon-instagram" viewBox="0 0 27 32">
<path d="M18.286 16c0-2.518-2.054-4.571-4.571-4.571s-4.571 2.054-4.571 4.571 2.054 4.571 4.571 4.571 4.571-2.054 4.571-4.571zM20.75 16c0 3.893-3.143 7.036-7.036 7.036s-7.036-3.143-7.036-7.036 3.143-7.036 7.036-7.036 7.036 3.143 7.036 7.036zM22.679 8.679c0 0.911-0.732 1.643-1.643 1.643s-1.643-0.732-1.643-1.643 0.732-1.643 1.643-1.643 1.643 0.732 1.643 1.643zM13.714 4.75c-2 0-6.286-0.161-8.089 0.554-0.625 0.25-1.089 0.554-1.571 1.036s-0.786 0.946-1.036 1.571c-0.714 1.804-0.554 6.089-0.554 8.089s-0.161 6.286 0.554 8.089c0.25 0.625 0.554 1.089 1.036 1.571s0.946 0.786 1.571 1.036c1.804 0.714 6.089 0.554 8.089 0.554s6.286 0.161 8.089-0.554c0.625-0.25 1.089-0.554 1.571-1.036s0.786-0.946 1.036-1.571c0.714-1.804 0.554-6.089 0.554-8.089s0.161-6.286-0.554-8.089c-0.25-0.625-0.554-1.089-1.036-1.571s-0.946-0.786-1.571-1.036c-1.804-0.714-6.089-0.554-8.089-0.554zM27.429 16c0 1.893 0.018 3.768-0.089 5.661-0.107 2.196-0.607 4.143-2.214 5.75s-3.554 2.107-5.75 2.214c-1.893 0.107-3.768 0.089-5.661 0.089s-3.768 0.018-5.661-0.089c-2.196-0.107-4.143-0.607-5.75-2.214s-2.107-3.554-2.214-5.75c-0.107-1.893-0.089-3.768-0.089-5.661s-0.018-3.768 0.089-5.661c0.107-2.196 0.607-4.143 2.214-5.75s3.554-2.107 5.75-2.214c1.893-0.107 3.768-0.089 5.661-0.089s3.768-0.018 5.661 0.089c2.196 0.107 4.143 0.607 5.75 2.214s2.107 3.554 2.214 5.75c0.107 1.893 0.089 3.768 0.089 5.661z"></path>
</symbol>
</svg>
